HIERARCHY
ROOT Hips
{
	OFFSET	0.00	0.00	0.00
	CHANNELS 6 Xposition Yposition Zposition Zrotation Xrotation Yrotation
	JOINT LeftUpLeg
	{
		OFFSET	 0.126116	-0.065224	 0.014019
		CHANNELS 3 Zrotation Xrotation Yrotation
		JOINT LeftLeg
		{
			OFFSET	 0.000000	 0.569914	 0.000000
			CHANNELS 3 Zrotation Xrotation Yrotation
			JOINT LeftFoot
			{
				OFFSET	 0.000000	 0.544423	 0.000000
				CHANNELS 3 Zrotation Xrotation Yrotation
				JOINT LeftToeBase
				{
					OFFSET	 0.000000	 0.207117	 0.000000
					CHANNELS 3 Zrotation Xrotation Yrotation
					End Site
					{
						OFFSET	 0.000000	 0.207117	 0.000000
					}
				}
			}
		}
	}
	JOINT RightUpLeg
	{
		OFFSET	-0.124023	-0.065224	 0.008373
		CHANNELS 3 Zrotation Xrotation Yrotation
		JOINT RightLeg
		{
			OFFSET	 0.000000	 0.570047	 0.000000
			CHANNELS 3 Zrotation Xrotation Yrotation
			JOINT RightFoot
			{
				OFFSET	 0.000000	 0.544354	 0.000000
				CHANNELS 3 Zrotation Xrotation Yrotation
				JOINT RightToeBase
				{
					OFFSET	 0.000000	 0.207540	 0.000000
					CHANNELS 3 Zrotation Xrotation Yrotation
					End Site
					{
						OFFSET	 0.000000	 0.207540	 0.000000
					}
				}
			}
		}
	}
	JOINT Spine
	{
		OFFSET	 0.000184	 0.117403	 0.007763
		CHANNELS 3 Zrotation Xrotation Yrotation
		JOINT Spine1
		{
			OFFSET	 0.000000	 0.137269	 0.000000
			CHANNELS 3 Zrotation Xrotation Yrotation
			JOINT Spine2
			{
				OFFSET	 0.000000	 0.156879	 0.000000
				CHANNELS 3 Zrotation Xrotation Yrotation
				JOINT LeftShoulder
				{
					OFFSET	 0.080501	 0.160143	 0.002496
					CHANNELS 3 Zrotation Xrotation Yrotation
					JOINT LeftArm
					{
						OFFSET	 0.000000	 0.164363	 0.000000
						CHANNELS 3 Zrotation Xrotation Yrotation
						JOINT LeftForeArm
						{
							OFFSET	 0.000000	 0.364576	 0.000000
							CHANNELS 3 Zrotation Xrotation Yrotation
							JOINT LeftHand
							{
								OFFSET	 0.000000	 0.360812	 0.000000
								CHANNELS 3 Zrotation Xrotation Yrotation
								JOINT LeftHandIndex1
								{
									OFFSET	 0.000000	 0.086006	 0.000000
									CHANNELS 3 Zrotation Xrotation Yrotation
									JOINT LeftHandIndex2
									{
										OFFSET	 0.000000	 0.047237	 0.000000
										CHANNELS 3 Zrotation Xrotation Yrotation
										JOINT LeftHandIndex3
										{
											OFFSET	-0.004284	 0.038165	 0.000551
											CHANNELS 3 Zrotation Xrotation Yrotation
											End Site
											{
												OFFSET	-0.004284	 0.038165	 0.000551
											}
										}
									}
								}
							}
						}
					}
				}
				JOINT Neck
				{
					OFFSET	 0.000000	 0.176489	 0.000000
					CHANNELS 3 Zrotation Xrotation Yrotation
					JOINT Head
					{
						OFFSET	 0.000000	 0.077941	 0.001747
						CHANNELS 3 Zrotation Xrotation Yrotation
						End Site
						{
							OFFSET	 0.000000	 0.077941	 0.001747
						}
					}
				}
				JOINT RightShoulder
				{
					OFFSET	-0.080363	 0.159706	-0.000306
					CHANNELS 3 Zrotation Xrotation Yrotation
					JOINT RightArm
					{
						OFFSET	 0.000000	 0.164196	 0.000000
						CHANNELS 3 Zrotation Xrotation Yrotation
						JOINT RightForeArm
						{
							OFFSET	 0.000000	 0.365611	 0.000000
							CHANNELS 3 Zrotation Xrotation Yrotation
							JOINT RightHand
							{
								OFFSET	 0.000000	 0.360648	 0.000000
								CHANNELS 3 Zrotation Xrotation Yrotation
								JOINT RightHandIndex1
								{
									OFFSET	 0.000000	 0.069977	 0.000000
									CHANNELS 3 Zrotation Xrotation Yrotation
									JOINT RightHandIndex2
									{
										OFFSET	 0.000000	 0.052305	 0.000000
										CHANNELS 3 Zrotation Xrotation Yrotation
										JOINT RightHandIndex3
										{
											OFFSET	 0.009002	 0.042196	 0.000782
											CHANNELS 3 Zrotation Xrotation Yrotation
											End Site
											{
												OFFSET	 0.009002	 0.042196	 0.000782
											}
										}
									}
								}
							}
						}
					}
				}
			}
		}
	}
}
MOTION
Frames:    5
Frame Time: 0.03333334
 0.436237	 1.273761	 0.406576	 0.675849	-2.346555	-177.251100	-178.939300	 6.988998	-12.826600	 3.575784	-13.212070	 6.001121	 5.381969	 69.977870	-1.638361	 1.292262	 28.425850	-2.713146	 176.657300	 7.481990	 14.443910	-2.005110	-10.316910	 0.856037	 0.584002	 66.036930	-5.820608	-1.288183	 28.361890	 2.710176	-1.049660	 5.048883	-12.359770	 3.598704	-1.900974	-6.214440	-2.312703	 2.147847	 18.448660	-117.459200	-0.779890	 89.958450	 11.989390	-3.563926	-8.284542	 5.059339	-0.411078	 34.724020	-36.695400	-4.687476	-16.408730	-6.580301	 5.266122	 0.000000	 0.000000	 0.000000	 0.000000	 0.000000	 0.000000	 0.000000	 4.795020	 27.116100	 1.713064	-3.638643	-17.228210	 4.933470	 116.287700	-0.440201	-90.569130	-10.763430	-3.170666	 17.779900	-5.084409	 0.121205	-57.199130	-52.784330	-41.774640	-9.447433	 15.208500	 5.323790	 0.000000	 0.000000	 0.000000	 0.000000	 0.000000	 0.000000	 0.000000
 0.448754	 1.254330	 0.516733	 1.897325	-20.505030	-173.685100	 179.387900	 37.884050	-9.345644	 6.706964	-23.731730	 14.577440	 27.679100	 64.767270	-21.266710	 1.292262	 28.425850	-2.713146	 173.514700	 37.444930	 20.161210	-4.299724	-21.309200	-4.441193	-17.088300	 64.272430	 7.498154	-1.288183	 28.361890	 2.710176	 5.118911	 6.494747	-39.742620	 0.693962	 9.007121	-1.700994	 1.032525	-0.460928	 4.508904	-122.054700	 10.055330	 95.447690	 11.109830	 19.789770	 10.151450	 55.123070	 3.724623	-6.244008	-22.910500	-71.681450	-31.478060	-6.580301	 5.266122	 0.000000	 0.000000	 0.000000	 0.000000	 0.000000	 0.000000	 0.000000	 7.476427	 35.036580	-2.582261	-3.099984	-27.632790	 1.708589	 125.022400	 9.187580	-95.979520	-8.100432	 28.430380	 4.987372	-70.864650	 12.558830	-10.855720	-26.368040	-56.635630	-16.076280	 15.208500	 5.323790	 0.000000	 0.000000	 0.000000	 0.000000	 0.000000	 0.000000	 0.000000
 0.452741	 1.250172	 0.534476	 2.200433	-24.149710	-172.507000	 178.316200	 42.784100	-7.400455	 6.683999	-23.659720	 16.035420	 29.757210	 62.587300	-22.871400	 1.292262	 28.425850	-2.713146	 172.159300	 42.473790	 21.566120	-4.466823	-22.057740	-4.873081	-19.204350	 63.470760	 8.694010	-1.288183	 28.361890	 2.710176	 5.720037	 6.405296	-39.952460	 1.131374	 9.648961	-0.890863	 1.010183	-0.657214	 1.514211	-121.173600	 12.834480	 96.724790	 13.372110	 19.972860	 9.543120	 58.002140	 4.405571	-8.898784	-1.900002	-72.199910	-16.473050	-6.580301	 5.266122	 0.000000	 0.000000	 0.000000	 0.000000	 0.000000	 0.000000	 0.000000	 6.510527	 34.201090	-2.381346	-2.795890	-28.883530	 0.711017	 124.460400	 12.138180	-97.467820	-12.302370	 29.579510	 5.803646	-73.578410	 13.192800	-5.816527	-18.808470	-59.915990	-11.888190	 15.208500	 5.323790	 0.000000	 0.000000	 0.000000	 0.000000	 0.000000	 0.000000	 0.000000
 0.456354	 1.241552	 0.552965	 1.177435	-26.411700	-173.108500	 177.248100	 46.937660	-7.473230	 7.131880	-25.048690	 17.137100	 31.643730	 61.881400	-24.288230	 1.292262	 28.425850	-2.713146	 170.658600	 47.526780	 21.027220	-5.089080	-24.773550	-7.179457	-24.790610	 62.337040	 14.025340	-1.288183	 28.361890	 2.710176	 6.493222	 6.923365	-38.763310	 1.200518	 10.048040	 0.297240	 0.831306	-0.070968	-1.626870	-119.216700	 14.993560	 97.464630	 16.322470	 19.281630	 7.135027	 61.529980	 4.759493	-12.357670	 20.482570	-69.191310	-1.035705	-6.580301	 5.266122	 0.000000	 0.000000	 0.000000	 0.000000	 0.000000	 0.000000	 0.000000	 5.920456	 33.232270	-2.707366	-2.603140	-30.717350	-0.423519	 122.640000	 14.575890	-98.407170	-17.531840	 30.471740	 8.449640	-74.578800	 13.494000	-0.231236	-9.193211	-65.203190	-5.466861	 15.208500	 5.323790	 0.000000	 0.000000	 0.000000	 0.000000	 0.000000	 0.000000	 0.000000
 0.460908	 1.228721	 0.567975	-0.548314	-28.989090	-173.729800	 174.588500	 50.389990	-6.249454	 7.357064	-25.734920	 18.659830	 34.401700	 60.980460	-26.601470	 1.292262	 28.425850	-2.713146	 167.006900	 52.869250	 22.166560	-6.177801	-29.243890	-11.664560	-33.649760	 61.110210	 23.558750	-1.288183	 28.361890	 2.710176	 7.129986	 7.638673	-36.148150	 1.406267	 11.189580	 1.267605	 0.083978	 0.454909	-4.802873	-120.650600	 17.319320	 98.865210	 19.238710	 16.330420	 4.698220	 63.664300	 4.844017	-15.790290	 33.033930	-61.541700	 5.298720	-6.580301	 5.266122	 0.000000	 0.000000	 0.000000	 0.000000	 0.000000	 0.000000	 0.000000	 5.020699	 35.571450	-3.070601	-1.820797	-35.168110	-1.485347	 123.322200	 17.618350	-100.122700	-21.395320	 27.026340	 10.083840	-74.703360	 13.441310	 4.828295	 2.387283	-66.464130	 1.395710	 15.208500	 5.323790	 0.000000	 0.000000	 0.000000	 0.000000	 0.000000	 0.000000	 0.000000
